Coordinates
version=1
nRows=31
nColumns=38
inDegrees=no

Units are S.I. units (second, meters, Newtons, ...)
If the header above contains a line with 'inDegrees', this indicates whether rotational values are in degrees (yes) or radians (no).

endheader
time	pelvis_tilt	pelvis_list	pelvis_rotation	pelvis_tx	pelvis_ty	pelvis_tz	hip_flexion_r	hip_adduction_r	hip_rotation_r	knee_angle_r	ankle_angle_r	subtalar_angle_r	mtp_angle_r	hip_flexion_l	hip_adduction_l	hip_rotation_l	knee_angle_l	ankle_angle_l	subtalar_angle_l	mtp_angle_l	lumbar_extension	lumbar_bending	lumbar_rotation	arm_flex_r	arm_add_r	arm_rot_r	elbow_flex_r	pro_sup_r	wrist_flex_r	wrist_dev_r	arm_flex_l	arm_add_l	arm_rot_l	elbow_flex_l	pro_sup_l	wrist_flex_l	wrist_dev_l
45	-2.35678	1.39692	0.994048	0.711171	-0.67483	1.01918	0.0906676	0.0908389	-0.283335	0	-0.261066	0	0	0.153439	-0.276146	-0.143627	0.081664	-0.364516	0	0	0.0287054	0.130162	0.0270829	-0.116204	-0.270832	0.00638667	0.606779	1.5708	0	0	-0.0583671	-0.321183	0.721409	0.55852	1.06828	0	0
45.01	-2.36305	1.39365	1.00356	0.711229	-0.675516	1.01869	0.091013	0.0925777	-0.288281	0	-0.262619	0	0	0.155759	-0.276703	-0.140529	0.0780155	-0.36784	0	0	0.0346171	0.127739	0.0315038	-0.116932	-0.266633	0.0125689	0.598615	1.5708	0	0	-0.0454352	-0.329932	0.788302	0.550436	0.993897	0	0
45.02	-2.36426	1.39223	1.00713	0.711247	-0.676083	1.01838	0.0897584	0.0940802	-0.291823	0	-0.262973	0	0	0.155633	-0.27686	-0.140306	0.0745087	-0.369443	0	0	0.0362173	0.124605	0.0341834	-0.113848	-0.262757	0.0227048	0.58952	1.5708	0	0	-0.0435075	-0.332314	0.798141	0.545258	0.985399	0	0
45.03	-2.36457	1.39089	1.00954	0.711296	-0.67658	1.01811	0.0889587	0.0955807	-0.294117	0	-0.26301	0	0	0.154895	-0.276873	-0.140415	0.0702186	-0.37116	0	0	0.037524	0.121987	0.0370746	-0.111195	-0.259395	0.0328585	0.581702	1.5708	0	0	-0.0411108	-0.333674	0.805413	0.539165	0.980713	0	0
45.04	-2.36262	1.38968	1.00954	0.711343	-0.676938	1.01789	0.0884665	0.0972813	-0.295641	0	-0.262865	0	0	0.153663	-0.277126	-0.140331	0.0654864	-0.372948	0	0	0.0379461	0.119732	0.0397019	-0.108254	-0.256421	0.0435032	0.574843	1.5708	0	0	-0.0381839	-0.335324	0.811953	0.53372	0.980407	0	0
45.05	-2.35915	1.38896	1.00744	0.711392	-0.677188	1.01776	0.0880165	0.0987868	-0.296205	0	-0.262533	0	0	0.151949	-0.277471	-0.140526	0.0612519	-0.37462	0	0	0.0370297	0.117431	0.0424129	-0.104509	-0.253824	0.0552207	0.568145	1.5708	0	0	-0.0350808	-0.337087	0.816708	0.528545	0.985661	0	0
45.06	-2.35711	1.38863	1.00634	0.711466	-0.677402	1.01769	0.0878589	0.0996775	-0.296462	0	-0.261912	0	0	0.150094	-0.277463	-0.141066	0.0573269	-0.376283	0	0	0.0357659	0.114901	0.0454762	-0.100526	-0.251635	0.0678844	0.561293	1.5708	0	0	-0.0314428	-0.337862	0.819057	0.521585	0.998868	0	0
45.07	-2.35661	1.38811	1.0069	0.71159	-0.677601	1.01761	0.0883875	0.100273	-0.297314	0	-0.261389	0	0	0.149052	-0.277412	-0.141323	0.0543183	-0.377267	0	0	0.0349258	0.112636	0.0482112	-0.0975842	-0.249199	0.0771793	0.556286	1.5708	0	0	-0.0277469	-0.337963	0.819459	0.514296	1.01164	0	0
45.08	-2.35612	1.38765	1.00788	0.711758	-0.677744	1.01759	0.0890509	0.100658	-0.298522	0	-0.260812	0	0	0.148354	-0.277341	-0.140402	0.0515681	-0.377998	0	0	0.0339696	0.110297	0.0502321	-0.0938186	-0.247116	0.0880113	0.550452	1.5708	0	0	-0.0238862	-0.337355	0.817548	0.505792	1.0308	0	0
45.09	-2.35594	1.38654	1.00967	0.711994	-0.677903	1.01755	0.0900894	0.101263	-0.298641	0	-0.261127	0	0	0.149216	-0.277694	-0.13981	0.0503451	-0.378359	0	0	0.0346662	0.108951	0.0539082	-0.0941659	-0.243841	0.087048	0.548633	1.5708	0	0	-0.00971665	-0.340946	0.867152	0.495799	0.985445	0	0
45.1	-2.35527	1.38601	1.01149	0.712274	-0.677935	1.01756	0.0907997	0.101416	-0.300068	0	-0.259845	0	0	0.150115	-0.27771	-0.138478	0.0499345	-0.374009	0	0	0.0330821	0.10635	0.0525676	-0.0880253	-0.243497	0.105819	0.542417	1.5708	0	0	-0.0160831	-0.334257	0.803639	0.488288	1.08121	0	0
45.11	-2.35641	1.38419	1.01451	0.712568	-0.678025	1.01746	0.0929162	0.101955	-0.301097	0	-0.259369	0	0	0.155931	-0.279187	-0.144908	0.0589168	-0.363134	0	0	0.0343665	0.105496	0.0551887	-0.0876967	-0.242481	0.111302	0.541399	1.5708	0	0	-0.011581	-0.328902	0.788487	0.475455	1.11566	0	0
45.12	-2.33906	1.3866	1.00032	0.713221	-0.678223	1.01764	0.0886128	0.102808	-0.305589	0	-0.259081	0	0	0.179644	-0.290098	-0.180833	0.12397	-0.350898	0	0	0.029701	0.105981	0.057673	-0.0882035	-0.242582	0.114516	0.542939	1.5708	0	0	-0.00408812	-0.323418	0.780608	0.462861	1.13785	0	0
45.13	-2.34379	1.38388	1.00899	0.713657	-0.678297	1.01749	0.0915448	0.103018	-0.307372	0	-0.258839	0	0	0.184106	-0.290172	-0.177466	0.12435	-0.352039	0	0	0.0343328	0.10562	0.061407	-0.0916687	-0.241171	0.113365	0.543208	1.5708	0	0	0.0158221	-0.323333	0.841405	0.443773	1.09952	0	0
45.14	-2.32391	1.38874	0.993526	0.714129	-0.678072	1.01801	0.0854362	0.102899	-0.313181	0	-0.258371	0	0	0.178518	-0.289624	-0.172899	0.122995	-0.353499	0	0	0.0219759	0.102055	0.0553553	-0.0826148	-0.241048	0.128531	0.541682	1.5708	0	0	-0.0125945	-0.3034	0.613437	0.452695	1.35786	0	0
45.15	-2.32103	1.38846	0.994656	0.714665	-0.678011	1.01804	0.0856435	0.102809	-0.317351	0	-0.258071	0	0	0.179593	-0.289187	-0.167924	0.122511	-0.354168	0	0	0.0213664	0.10074	0.056186	-0.0826588	-0.240814	0.131191	0.542542	1.5708	0	0	-0.00604017	-0.301492	0.598016	0.447731	1.39462	0	0
45.16	-2.32698	1.38463	1.00492	0.715215	-0.678081	1.01776	0.0895912	0.103268	-0.31884	0	-0.258015	0	0	0.185359	-0.289501	-0.164423	0.122877	-0.354477	0	0	0.028918	0.101635	0.061825	-0.0892652	-0.240401	0.125123	0.544794	1.5708	0	0	0.0281136	-0.315002	0.75722	0.429566	1.25388	0	0
45.17	-2.31855	1.38402	1.00129	0.715725	-0.678017	1.01777	0.0889884	0.104339	-0.3201	0	-0.257765	0	0	0.187136	-0.290581	-0.162925	0.123638	-0.354642	0	0	0.0283887	0.101562	0.0621452	-0.0900647	-0.240433	0.12608	0.546901	1.5708	0	0	0.0356556	-0.316223	0.753505	0.428887	1.27772	0	0
45.18	-2.30255	1.38525	0.990811	0.716291	-0.677803	1.01792	0.0864152	0.105464	-0.325048	0	-0.256853	0	0	0.186578	-0.291463	-0.158332	0.123971	-0.356728	0	0	0.0220707	0.100367	0.0582124	-0.0869186	-0.240557	0.129788	0.549886	1.5708	0	0	0.018239	-0.304411	0.587158	0.443787	1.48723	0	0
45.19	-2.3027	1.38241	0.995383	0.716817	-0.677818	1.0177	0.0889924	0.106339	-0.326706	0	-0.256702	0	0	0.191206	-0.292253	-0.155263	0.125055	-0.354658	0	0	0.0269887	0.10125	0.0621024	-0.0919052	-0.240984	0.125072	0.55305	1.5708	0	0	0.0429365	-0.314878	0.689504	0.434516	1.40812	0	0
45.2	-2.31217	1.37857	1.01021	0.717067	-0.677492	1.01753	0.0940184	0.106332	-0.326222	0	-0.255804	0	0	0.166837	-0.281407	-0.107914	0.0505932	-0.371614	0	0	0.030368	0.098912	0.0601046	-0.0909039	-0.239386	0.123406	0.553314	1.5708	0	0	0.0394128	-0.310831	0.611955	0.44204	1.53287	0	0
45.21	-2.29285	1.38082	0.993578	0.717889	-0.677767	1.01762	0.0893416	0.107392	-0.328913	0	-0.25526	0	0	0.19469	-0.293137	-0.150487	0.125517	-0.355353	0	0	0.0269083	0.100515	0.063532	-0.0942241	-0.241273	0.118969	0.559002	1.5708	0	0	0.0511541	-0.314076	0.633651	0.443519	1.54903	0	0
45.22	-2.28861	1.38058	0.992928	0.718414	-0.677797	1.01765	0.0889659	0.107584	-0.329311	0	-0.255339	0	0	0.195568	-0.293197	-0.149119	0.125199	-0.356866	0	0	0.0276214	0.100362	0.0650295	-0.095177	-0.242322	0.119064	0.560413	1.5708	0	0	0.0655152	-0.319981	0.676065	0.443782	1.53251	0	0
45.23	-2.28581	1.37951	0.994041	0.71896	-0.677774	1.01761	0.089579	0.107974	-0.329968	0	-0.254898	0	0	0.197776	-0.293393	-0.146701	0.125525	-0.356518	0	0	0.0288713	0.100302	0.0661102	-0.0968192	-0.243009	0.116206	0.562979	1.5708	0	0	0.075307	-0.322093	0.683398	0.446188	1.5708	0	0
45.24	-2.28489	1.37815	0.997217	0.719523	-0.677727	1.01754	0.090876	0.108132	-0.331656	0	-0.254195	0	0	0.200573	-0.293356	-0.143987	0.125898	-0.356551	0	0	0.030885	0.100257	0.0669856	-0.0986002	-0.243573	0.112231	0.565288	1.5708	0	0	0.0875172	-0.324923	0.705384	0.446768	1.5708	0	0
45.25	-2.28489	1.37696	1.00122	0.720075	-0.677708	1.0175	0.0921169	0.108029	-0.332896	0	-0.253455	0	0	0.203152	-0.292999	-0.141227	0.126003	-0.356891	0	0	0.0332205	0.100095	0.0680058	-0.100313	-0.243954	0.107998	0.566676	1.5708	0	0	0.103157	-0.327987	0.744144	0.443849	1.5708	0	0
45.26	-2.29131	1.37372	1.01167	0.720664	-0.677716	1.01732	0.0959971	0.107819	-0.333764	0	-0.25231	0	0	0.208215	-0.29241	-0.136971	0.12572	-0.357837	0	0	0.0396645	0.100556	0.0716125	-0.1055	-0.243872	0.0978197	0.569037	1.5708	0	0	0.131021	-0.32963	0.83395	0.42733	1.5708	0	0
45.27	-2.33614	1.35252	1.05919	0.721868	-0.677971	1.01627	0.12052	0.108993	-0.326699	0	-0.25397	0	0	0.233625	-0.292688	-0.127072	0.12438	-0.361106	0	0	0.0813689	0.112199	0.088901	-0.130887	-0.245176	0.0650928	0.572485	1.5708	0	0	0.229174	-0.170946	1.5708	0.0466059	1.12068	0	0
45.28	-2.33276	1.35135	1.06033	0.722327	-0.677846	1.01615	0.12142	0.109484	-0.328393	0	-0.252709	0	0	0.236967	-0.29301	-0.124761	0.126127	-0.360993	0	0	0.0834371	0.111047	0.0899848	-0.132131	-0.244814	0.0604295	0.572721	1.5708	0	0	0.232526	-0.143287	1.5708	7.45221e-09	1.19974	0	0
45.29	-2.32786	1.34998	1.06014	0.722813	-0.677669	1.01603	0.122402	0.110329	-0.330357	0	-0.25184	0	0	0.240741	-0.293784	-0.123754	0.128386	-0.361071	0	0	0.0875194	0.110533	0.0935266	-0.135068	-0.24493	0.0559563	0.572021	1.5708	0	0	0.240924	-0.141249	1.5708	2.69004e-08	1.26034	0	0
45.3	-2.32282	1.34858	1.05989	0.723301	-0.677419	1.01596	0.123559	0.111152	-0.332474	0	-0.251026	0	0	0.244555	-0.29458	-0.123734	0.13019	-0.361494	0	0	0.0882962	0.110625	0.0921024	-0.134334	-0.245785	0.0540999	0.572834	1.5708	0	0	0.249945	-0.138176	1.5708	0	1.32871	0	0
